<?xml version="1.0" encoding="UTF-8" standalone="no"?>
<!-- Created with Inkscape (http://www.inkscape.org/) -->
<svg
   xmlns:dc="http://purl.org/dc/elements/1.1/"
   xmlns:cc="http://creativecommons.org/ns#"
   xmlns:rdf="http://www.w3.org/1999/02/22-rdf-syntax-ns#"
   xmlns:svg="http://www.w3.org/2000/svg"
   xmlns="http://www.w3.org/2000/svg"
   xmlns:sodipodi="http://sodipodi.sourceforge.net/DTD/sodipodi-0.dtd"
   xmlns:inkscape="http://www.inkscape.org/namespaces/inkscape"
   width="744.09448819"
   height="1052.3622047"
   id="svg2"
   sodipodi:version="0.32"
   inkscape:version="0.46"
   sodipodi:docname="supersearchlogl.svg"
   inkscape:output_extension="org.inkscape.output.svg.inkscape"
   inkscape:export-filename="/home/frew/workspace/SuperSearch/res/drawable/icon.png"
   inkscape:export-xdpi="10.865535"
   inkscape:export-ydpi="10.865535">
  <defs
     id="defs4">
    <inkscape:perspective
       sodipodi:type="inkscape:persp3d"
       inkscape:vp_x="0 : 526.18109 : 1"
       inkscape:vp_y="0 : 1000 : 0"
       inkscape:vp_z="744.09448 : 526.18109 : 1"
       inkscape:persp3d-origin="372.04724 : 350.78739 : 1"
       id="perspective10" />
  </defs>
  <sodipodi:namedview
     id="base"
     pagecolor="#ffffff"
     bordercolor="#666666"
     borderopacity="1.0"
     gridtolerance="10000"
     guidetolerance="10"
     objecttolerance="10"
     inkscape:pageopacity="0.0"
     inkscape:pageshadow="2"
     inkscape:zoom="1.4"
     inkscape:cx="165.83372"
     inkscape:cy="739.4409"
     inkscape:document-units="px"
     inkscape:current-layer="layer1"
     showgrid="false"
     inkscape:window-width="1280"
     inkscape:window-height="706"
     inkscape:window-x="-4"
     inkscape:window-y="0" />
  <metadata
     id="metadata7">
    <rdf:RDF>
      <cc:Work
         rdf:about="">
        <dc:format>image/svg+xml</dc:format>
        <dc:type
           rdf:resource="http://purl.org/dc/dcmitype/StillImage" />
      </cc:Work>
    </rdf:RDF>
  </metadata>
  <g
     inkscape:label="Layer 1"
     inkscape:groupmode="layer"
     id="layer1">
    <path
       style="fill:#ffff00;fill-opacity:1;fill-rule:evenodd;stroke:#fe0000;stroke-width:8.91875;stroke-linecap:butt;stroke-linejoin:miter;stroke-miterlimit:4;stroke-dasharray:none;stroke-opacity:1"
       d="M 147.48227,174.03455 C 120.22637,189.86876 87.641536,196.81135 64.304674,219.04789 C 75.603388,241.50697 82.037639,255.39029 96.313631,268.34531 C 113.25044,284.65928 127.56879,303.46468 144.64534,319.67334 C 178.31006,355.0206 223.23725,391.23051 255.25971,428.08001 C 282.81028,405.40861 288.419,399.48864 307.31101,381.81205 C 324.83233,364.8762 339.35283,345.0404 358.13756,329.33935 C 388.7417,294.99026 422.16035,263.56286 453.77878,230.37053 C 437.15676,200.74629 392.11379,180.6141 359.3093,172.00868 C 332.39917,171.59475 305.49046,173.2489 278.59057,172.06513 C 234.88286,172.34549 191.18435,173.34305 147.48227,174.03455 z"
       id="path3157"
       sodipodi:nodetypes="ccccccccccc" />
    <path
       style="fill:none;fill-opacity:1;fill-rule:evenodd;stroke:#ff0000;stroke-width:8.91875;stroke-linecap:butt;stroke-linejoin:round;stroke-miterlimit:4;stroke-dasharray:none;stroke-opacity:1"
       d="M 221.15166,265.03072 C 237.07024,252.26536 249.2884,242.84687 249.48397,227.31106 C 250.30819,209.37717 239.21433,190.27055 218.71861,182.84468 C 194.68631,173.27771 166.67739,176.64457 142.14377,183.03537 C 114.98081,189.25906 96.600745,211.71291 95.280415,234.48448 C 95.072295,241.49787 92.564761,248.56656 94.957335,255.55831 C 99.576465,273.23541 119.05479,287.39944 140.81799,288.92558 C 160.95798,293.41954 181.70456,286.63339 198.16449,277.19096 C 200.0287,277.18191 212.28589,269.36748 221.15166,265.03072 z"
       id="path3165"
       sodipodi:nodetypes="ccccccccc" />
    <path
       style="fill:none;fill-opacity:1;fill-rule:evenodd;stroke:#ff0000;stroke-width:8.91875;stroke-linecap:butt;stroke-linejoin:round;stroke-miterlimit:4;stroke-dasharray:none;stroke-opacity:1"
       d="M 232.83736,257.66845 C 257.96736,274.85903 282.53748,287.6968 304.48805,309.0099 C 329.99254,316.95989 341.12252,344.79214 323.56395,360.37112 C 308.26265,373.10103 283.91471,352.68364 275.39787,335.14494 C 261.07787,324.63087 251.16984,322.21674 238.2839,310.00836 C 226.35895,300.65861 212.71793,288.34067 202.32682,277.25432"
       id="path3167"
       sodipodi:nodetypes="cccccc" />
  </g>
</svg>
